# xmcd
#
# Track frame offsets: 
#        150
#        11807
#        26187
#        39770
#        55410
#        70035
#        82922
#        98067
#        113515
#        127272
#        141465
#        155165
#        167150
#        182320
#        193320
#        206247
#        219010
#        232592
#        244345
#        256690
#
# Disc length: 3664 seconds
#
# Revision: 2
# Processed by: cddbd v1.5.2PL0 Copyright (c) Steve Scherf et al.
# Submitted via: ExactAudioCopyFreeDBPlugin 1.0
#
DISCID=120e4e14
DTITLE=Sara Vaughan - 1944 - 1950
DYEAR=1962
DGENRE=Jazz
TTITLE0=Nice Work If You Can Get It
TTITLE1=It Might As Well Be Spring
TTITLE2=Ain't Misbehavin'
TTITLE3=Goodnight My Love
TTITLE4=Summertime
TTITLE5=Can't Get Out Of This Mood
TTITLE6=The Nearness Of You
TTITLE7=Come Rain Or Come Shine
TTITLE8=Once In A While
TTITLE9=Don't Blame Me
TTITLE10=Tenderly
TTITLE11=Mean To Me
TTITLE12=Lover Man
TTITLE13=No Smokes Blues
TTITLE14=Body And Soul
TTITLE15=East Of The Sun
TTITLE16=I Could Make You Love Me
TTITLE17=My Kinda Love
TTITLE18=Cheek To Cheek
TTITLE19=Alexander's Ragtime Band
EXTD=YEAR: 1962
EXTT0=
EXTT1=
EXTT2=
EXTT3=
EXTT4=
EXTT5=
EXTT6=
EXTT7=
EXTT8=
EXTT9=
EXTT10=
EXTT11=
EXTT12=
EXTT13=
EXTT14=
EXTT15=
EXTT16=
EXTT17=
EXTT18=
EXTT19=
PLAYORDER=
